# Blender v2.90.0 Alpha OBJ File: ''
# www.blender.org
mtllib bevelCube.mtl
o Cube_Cube.001
v -0.900000 -1.000000 0.900000
v -0.900000 -0.900000 1.000000
v -1.000000 -0.900000 0.900000
v -0.900000 0.900000 1.000000
v -0.900000 1.000000 0.900000
v -1.000000 0.900000 0.900000
v -0.900000 -1.000000 -0.900000
v -1.000000 -0.900000 -0.900000
v -0.900000 -0.900000 -1.000000
v -0.900000 1.000000 -0.900000
v -0.900000 0.900000 -1.000000
v -1.000000 0.900000 -0.900000
v 0.900000 -1.000000 0.900000
v 1.000000 -0.900000 0.900000
v 0.900000 -0.900000 1.000000
v 0.900000 1.000000 0.900000
v 0.900000 0.900000 1.000000
v 1.000000 0.900000 0.900000
v 0.900000 -1.000000 -0.900000
v 0.900000 -0.900000 -1.000000
v 1.000000 -0.900000 -0.900000
v 0.900000 1.000000 -0.900000
v 1.000000 0.900000 -0.900000
v 0.900000 0.900000 -1.000000
vt 0.720326 0.405376
vt 0.387868 0.405376
vt 0.387868 0.021336
vt 0.720326 0.021336
vt 0.235083 0.978664
vt 0.000000 0.978664
vt 0.000000 0.594624
vt 0.235083 0.594624
vt 1.000000 0.405376
vt 0.764917 0.405376
vt 0.764917 0.021336
vt 1.000000 0.021336
vt 0.350928 0.301731
vt 0.350928 0.573288
vt 0.018470 0.573288
vt 0.018470 0.301731
vt 0.720326 0.448047
vt 0.720326 0.832088
vt 0.387868 0.832088
vt 0.387868 0.448047
vt 0.350928 0.271558
vt 0.369398 0.286644
vt 0.751856 0.000000
vt 0.738796 0.021336
vt 0.018470 0.271558
vt 0.000000 0.286644
vt 0.751856 0.426711
vt 0.738796 0.405376
vt 0.261204 0.594624
vt 0.248144 0.573288
vt 0.764917 0.832087
vt 0.751856 0.853423
vt 0.738796 0.832087
vt 0.261204 0.978664
vt 0.248144 1.000000
vt 0.764917 0.448047
vt 0.738796 0.448047
vt 0.751856 0.426712
vt 0.387868 0.000000
vt 0.720326 0.000000
vt 0.738796 0.448047
vt 0.738796 0.832088
vt 0.387868 0.426712
vt 0.720326 0.426712
vt 0.720326 0.853423
vt 0.387868 0.853423
vt 0.369398 0.832088
vt 0.369398 0.448047
vt 0.720326 0.426712
vt 0.387868 0.426712
vt 0.738796 0.021336
vt 0.738796 0.405376
vt 0.369398 0.405376
vt 0.369398 0.021336
vt 0.018470 0.000000
vt 0.350928 0.000000
vn 0.0000 0.0000 1.0000
vn 1.0000 0.0000 0.0000
vn 0.0000 1.0000 0.0000
vn -1.0000 0.0000 0.0000
vn 0.0000 0.0000 -1.0000
vn -0.5774 -0.5774 0.5774
vn -0.5774 0.5774 0.5774
vn -0.5774 -0.5774 -0.5774
vn -0.5774 0.5774 -0.5774
vn 0.5774 -0.5774 0.5774
vn 0.5774 0.5774 0.5774
vn 0.5774 -0.5774 -0.5774
vn 0.5774 0.5774 -0.5774
vn -0.7071 -0.7071 0.0000
vn -0.7071 0.0000 0.7071
vn -0.7071 0.7071 0.0000
vn -0.7071 0.0000 -0.7071
vn 0.0000 -0.7071 -0.7071
vn 0.0000 0.7071 -0.7071
vn 0.7071 0.0000 -0.7071
vn 0.7071 -0.7071 0.0000
vn 0.7071 0.7071 0.0000
vn 0.7071 0.0000 0.7071
vn 0.0000 -0.7071 0.7071
vn 0.0000 0.7071 0.7071
vn 0.0000 -1.0000 0.0000
usemtl None
s off
f 15/1/1 17/2/1 4/3/1 2/4/1
f 21/5/2 23/6/2 18/7/2 14/8/2
f 22/9/3 10/10/3 5/11/3 16/12/3
f 3/13/4 6/14/4 12/15/4 8/16/4
f 9/17/5 11/18/5 24/19/5 20/20/5
f 1/21/6 2/22/6 3/13/6
f 4/23/7 5/11/7 6/24/7
f 7/25/8 8/16/8 9/26/8
f 10/10/9 11/27/9 12/28/9
f 13/29/10 14/8/10 15/30/10
f 16/31/11 17/32/11 18/33/11
f 19/34/12 20/35/12 21/5/12
f 22/36/13 23/37/13 24/38/13
f 7/25/14 1/21/14 3/13/14 8/16/14
f 2/4/15 4/3/15 6/39/15 3/40/15
f 5/11/16 10/10/16 12/28/16 6/24/16
f 11/18/17 9/17/17 8/41/17 12/42/17
f 19/43/18 7/44/18 9/17/18 20/20/18
f 10/45/19 22/46/19 24/19/19 11/18/19
f 23/47/20 21/48/20 20/20/20 24/19/20
f 13/29/21 19/34/21 21/5/21 14/8/21
f 22/36/22 16/31/22 18/33/22 23/37/22
f 17/2/23 15/1/23 14/49/23 18/50/23
f 1/51/24 13/52/24 15/1/24 2/4/24
f 16/53/25 5/54/25 4/3/25 17/2/25
f 7/25/26 19/55/26 13/56/26 1/21/26
